<svg width="312" height="211" viewBox="0 0 312 211" fill="none" xmlns="http://www.w3.org/2000/svg">
<path d="M155.615 67.9065C191.276 67.9065 220.229 96.8603 220.229 132.521C220.229 168.182 191.276 197.136 155.615 197.136C119.954 197.136 91 168.182 91 132.521C91 96.8603 119.954 67.9065 155.615 67.9065Z" fill="#C7F1E0"/>
<path d="M155.615 67.9065C191.276 67.9065 220.229 96.8603 220.229 132.521C220.229 168.182 191.276 197.136 155.615 197.136C119.954 197.136 91 168.182 91 132.521C91 96.8603 119.954 67.9065 155.615 67.9065Z" fill="#BBFFDA"/>
<path d="M155.831 82.0872C183.85 82.0873 206.6 104.838 206.6 132.857C206.599 160.876 183.85 183.625 155.831 183.625C127.812 183.625 105.062 160.876 105.062 132.857C105.062 104.838 127.812 82.0872 155.831 82.0872Z" fill="#50CD89" stroke="white" stroke-width="1.35815"/>
<path d="M132.93 134.934L147.899 149.612L178.128 118.366" stroke="#E8FFF3" stroke-width="8.1489" stroke-linecap="round" stroke-linejoin="round"/>
<path d="M35.0181 144.094C34.8003 144.181 34.5672 144.225 34.3323 144.221C34.0973 144.218 33.8652 144.168 33.6492 144.075C31.141 142.989 30.5696 140.798 30.162 139.197C29.7696 137.686 29.5438 137.082 28.7265 136.726C27.9091 136.371 27.3172 136.625 25.9588 137.379C24.5207 138.177 22.5473 139.256 20.0462 138.189C17.545 137.121 16.9697 134.913 16.5599 133.314C16.1665 131.8 15.9407 131.196 15.1243 130.842C14.3079 130.489 13.715 130.741 12.3566 131.495C10.9207 132.292 8.94519 133.372 6.44402 132.305C3.94285 131.237 3.34225 129.024 2.93906 127.422C2.54661 125.91 2.32083 125.306 1.50351 124.95C1.10326 124.74 0.796134 124.387 0.643515 123.96C0.490895 123.534 0.504019 123.066 0.680264 122.65C0.85651 122.234 1.18289 121.9 1.59419 121.716C2.00549 121.532 2.47141 121.511 2.89883 121.657C5.40711 122.742 5.97755 124.931 6.38516 126.532C6.78294 128.044 7.02202 128.643 7.82737 129.001C8.63272 129.358 9.23445 129.103 10.5919 128.347C12.03 127.548 14.0034 126.469 16.5045 127.537C19.0057 128.604 19.581 130.812 19.9909 132.412C20.3833 133.923 20.6091 134.528 21.4264 134.883C22.2437 135.239 22.8335 134.985 24.1919 134.231C25.63 133.433 27.6033 132.354 30.1045 133.421C32.6057 134.489 33.1832 136.696 33.5908 138.296C33.9842 139.81 34.2099 140.414 35.0264 140.768C35.3517 140.909 35.6284 141.143 35.8216 141.442C36.0149 141.74 36.1159 142.089 36.112 142.444C36.1081 142.799 35.9994 143.145 35.7996 143.437C35.5999 143.73 35.3181 143.956 34.9897 144.087L35.0181 144.094Z" fill="#50CD89"/>
<path d="M236.523 44.7575C236.445 44.664 236.386 44.5557 236.349 44.439C236.313 44.3223 236.3 44.1994 236.311 44.0774C236.441 42.6609 237.433 42.0232 238.158 41.5621C238.842 41.1231 239.104 40.9134 239.148 40.4516C239.191 39.9897 238.969 39.7382 238.376 39.1885C237.748 38.6067 236.895 37.8056 237.017 36.3956C237.14 34.9855 238.139 34.3431 238.864 33.8811C239.548 33.4413 239.811 33.2316 239.853 32.7706C239.896 32.3095 239.675 32.0571 239.082 31.5075C238.455 30.9266 237.6 30.1246 237.723 28.7145C237.845 27.3045 238.843 26.6487 239.57 26.1896C240.254 25.7505 240.516 25.5409 240.56 25.079C240.599 24.847 240.724 24.6378 240.91 24.4932C241.096 24.3486 241.33 24.2792 241.564 24.299C241.798 24.3187 242.016 24.4261 242.174 24.5997C242.331 24.7733 242.417 25.0003 242.415 25.2353C242.284 26.6518 241.294 27.2887 240.569 27.7497C239.885 28.1915 239.628 28.4068 239.581 28.8631C239.535 29.3194 239.759 29.5756 240.353 30.1245C240.981 30.7063 241.834 31.5074 241.712 32.9174C241.589 34.3275 240.591 34.9699 239.866 35.4319C239.182 35.8709 238.919 36.0806 238.876 36.5424C238.833 37.0043 239.054 37.2549 239.647 37.8045C240.275 38.3864 241.128 39.1875 241.006 40.5975C240.883 42.0076 239.885 42.6509 239.159 43.112C238.475 43.5518 238.212 43.7615 238.17 44.2225C238.153 44.4062 238.082 44.5811 237.966 44.725C237.849 44.8689 237.693 44.9754 237.517 45.0311C237.341 45.0867 237.152 45.089 236.975 45.0376C236.798 44.9862 236.64 44.8835 236.522 44.7424L236.523 44.7575Z" fill="#50CD89"/>
<path d="M273.252 65.5242C272.915 65.4099 272.62 65.199 272.403 64.9183C272.187 64.6376 272.059 64.2995 272.035 63.947C272.011 63.5944 272.093 63.2432 272.27 62.9376C272.447 62.632 272.711 62.3859 273.029 62.2303C275.481 61.0331 277.513 62.0212 278.995 62.7518C280.397 63.435 281.002 63.6561 281.802 63.2672C282.602 62.8783 282.794 62.2646 283.103 60.7457C283.43 59.1373 283.892 56.9411 286.325 55.7378C288.759 54.5344 290.808 55.531 292.289 56.2585C293.693 56.9425 294.298 57.1636 295.096 56.7739C295.894 56.3843 296.088 55.7713 296.397 54.2524C296.724 52.6441 297.174 50.444 299.619 49.2445C302.064 48.045 304.102 49.0377 305.583 49.7653C306.987 50.4493 307.59 50.6696 308.39 50.2807C308.814 50.0919 309.296 50.0744 309.734 50.2321C310.172 50.3897 310.532 50.7101 310.738 51.1258C310.944 51.5415 310.98 52.0199 310.839 52.4604C310.698 52.9008 310.39 53.2689 309.981 53.487C307.529 54.6842 305.497 53.6961 304.018 52.9663C302.616 52.283 302.008 52.0612 301.21 52.4508C300.412 52.8405 300.236 53.4469 299.929 54.9665C299.602 56.5749 299.152 58.775 296.707 59.9744C294.262 61.1739 292.224 60.1812 290.743 59.4537C289.341 58.7704 288.736 58.5494 287.936 58.9383C287.135 59.3272 286.945 59.9387 286.636 61.4576C286.308 63.0659 285.858 65.266 283.413 66.4655C280.969 67.6649 278.93 66.6745 277.45 65.9447C276.046 65.2607 275.441 65.0396 274.643 65.4293C274.429 65.5374 274.196 65.6016 273.957 65.6179C273.718 65.6342 273.478 65.6023 273.252 65.5242Z" fill="#F89C47"/>
<path d="M68.786 67.9053C70.6612 67.9053 72.1814 66.6891 72.1814 65.189C72.1814 63.6888 70.6612 62.4727 68.786 62.4727C66.9108 62.4727 65.3906 63.6888 65.3906 65.189C65.3906 66.6891 66.9108 67.9053 68.786 67.9053Z" fill="#F89C47"/>
<path d="M258.927 158.901C260.802 158.901 262.322 157.989 262.322 156.864C262.322 155.739 260.802 154.827 258.927 154.827C257.051 154.827 255.531 155.739 255.531 156.864C255.531 157.989 257.051 158.901 258.927 158.901Z" fill="#00A3FF"/>
<path d="M107.38 24.6291C107.067 24.7293 106.738 24.7583 106.429 24.7129C106.12 24.6674 105.844 24.5493 105.63 24.3716C105.416 24.1938 105.272 23.9633 105.216 23.7053C105.159 23.4473 105.191 23.1719 105.309 22.9094L108.777 15.184C108.86 14.9961 108.985 14.8192 109.145 14.6634C109.305 14.5076 109.496 14.376 109.707 14.2761C109.919 14.1762 110.146 14.11 110.377 14.0812C110.608 14.0525 110.838 14.0619 111.053 14.1087C111.268 14.1556 111.464 14.2391 111.63 14.3543C111.796 14.4696 111.929 14.6144 112.021 14.7805C112.113 14.9465 112.162 15.1305 112.166 15.3219C112.169 15.5133 112.127 15.7083 112.042 15.8957L108.574 23.6211C108.473 23.8465 108.312 24.0553 108.104 24.2305C107.897 24.4057 107.648 24.5423 107.38 24.6291ZM32.0561 70.0456C31.7432 70.1458 31.4142 70.1748 31.1054 70.1294C30.7966 70.0839 30.52 69.9658 30.3059 69.7881C30.0918 69.6103 29.9486 69.3798 29.892 69.1218C29.8353 68.8638 29.8675 68.5884 29.985 68.3259L33.4529 60.6005C33.5363 60.4126 33.6614 60.2357 33.8211 60.0799C33.9808 59.9241 34.1719 59.7925 34.3834 59.6926C34.5949 59.5927 34.8226 59.5265 35.0535 59.4977C35.2844 59.469 35.514 59.4784 35.729 59.5252C35.944 59.5721 36.1402 59.6556 36.3064 59.7708C36.4726 59.8861 36.6055 60.0309 36.6974 60.197C36.7893 60.363 36.8384 60.547 36.842 60.7384C36.8456 60.9298 36.8035 61.1248 36.7182 61.3122L33.2503 69.0376C33.149 69.263 32.988 69.4718 32.7804 69.647C32.5728 69.8222 32.3246 69.9588 32.0561 70.0456ZM81.2158 18.0417C80.9477 18.1286 80.6667 18.1631 80.3962 18.1425C80.1257 18.1218 79.8733 18.0465 79.6598 17.9228L72.3258 13.6896C72.1469 13.5876 71.9986 13.4541 71.8895 13.2969C71.7803 13.1396 71.7125 12.9617 71.6898 12.7733C71.6671 12.5849 71.6901 12.3897 71.7573 12.1989C71.8245 12.0082 71.9348 11.8256 72.0816 11.6618C72.2285 11.4979 72.4092 11.356 72.6132 11.2441C72.8172 11.1322 73.0406 11.0525 73.2706 11.0097C73.5005 10.9669 73.7325 10.9618 73.9532 10.9946C74.1738 11.0274 74.3789 11.0976 74.5565 11.201L81.8905 15.4342C82.1396 15.5784 82.327 15.783 82.432 16.0255C82.5371 16.268 82.5558 16.5389 82.4861 16.8085C82.4163 17.0781 82.2608 17.3359 82.0367 17.5535C81.8126 17.7711 81.5285 17.94 81.2158 18.0417Z" fill="#00A3FF"/>
<path d="M283.606 210.144C283.35 210.129 283.103 210.044 282.892 209.899C282.682 209.753 282.516 209.553 282.412 209.319C282.308 209.086 282.271 208.829 282.305 208.576C282.339 208.323 282.442 208.084 282.603 207.886L287.353 202.054C287.468 201.911 287.61 201.793 287.771 201.706C287.932 201.619 288.108 201.564 288.29 201.545C288.473 201.526 288.657 201.542 288.833 201.594C289.008 201.646 289.172 201.732 289.314 201.847C289.456 201.962 289.574 202.104 289.661 202.265C289.748 202.426 289.803 202.602 289.821 202.783C289.84 202.965 289.822 203.148 289.769 203.323C289.717 203.497 289.63 203.66 289.513 203.801L284.763 209.633C284.624 209.803 284.447 209.938 284.246 210.027C284.045 210.116 283.825 210.156 283.606 210.144ZM249.121 206.443C248.865 206.428 248.618 206.343 248.408 206.198C248.197 206.053 248.031 205.852 247.927 205.619C247.823 205.385 247.786 205.128 247.82 204.875C247.854 204.622 247.957 204.383 248.118 204.185L252.868 198.353C252.983 198.211 253.125 198.093 253.286 198.005C253.447 197.918 253.623 197.863 253.806 197.844C253.988 197.825 254.172 197.842 254.348 197.894C254.523 197.946 254.687 198.032 254.829 198.147C254.972 198.262 255.09 198.404 255.177 198.564C255.264 198.725 255.318 198.901 255.337 199.082C255.355 199.264 255.337 199.447 255.285 199.622C255.232 199.797 255.145 199.959 255.029 200.1L250.278 205.932C250.14 206.103 249.963 206.238 249.761 206.326C249.56 206.415 249.341 206.455 249.121 206.443ZM299.808 175.899C299.588 175.888 299.375 175.824 299.184 175.714C298.994 175.604 298.833 175.451 298.714 175.266L294.625 168.953C294.525 168.8 294.456 168.629 294.423 168.45C294.389 168.27 294.391 168.086 294.43 167.908C294.468 167.729 294.541 167.56 294.645 167.41C294.749 167.26 294.881 167.131 295.035 167.032C295.189 166.933 295.361 166.866 295.542 166.833C295.722 166.801 295.907 166.804 296.086 166.843C296.265 166.882 296.434 166.955 296.585 167.059C296.735 167.164 296.864 167.297 296.962 167.45L301.052 173.764C301.19 173.978 301.267 174.227 301.273 174.482C301.279 174.738 301.214 174.99 301.085 175.21C300.957 175.431 300.769 175.612 300.544 175.734C300.318 175.856 300.064 175.913 299.808 175.899Z" fill="#F89C47"/>
<path d="M42.2777 102.344L43.1823 104.529C43.2344 104.655 43.3115 104.764 43.4069 104.847C43.5023 104.93 43.6132 104.984 43.73 105.005L45.7519 105.352C45.8861 105.375 46.0121 105.443 46.1158 105.548C46.2195 105.652 46.2966 105.789 46.3386 105.943C46.3805 106.096 46.3856 106.261 46.3532 106.418C46.3208 106.575 46.2523 106.719 46.1554 106.832L44.6987 108.534C44.6142 108.632 44.551 108.753 44.5144 108.887C44.4779 109.021 44.4691 109.163 44.4889 109.301L44.8225 111.709C44.8454 111.868 44.8303 112.032 44.7791 112.182C44.728 112.332 44.6426 112.462 44.5328 112.557C44.423 112.653 44.293 112.709 44.1576 112.721C44.0222 112.733 43.8867 112.699 43.7664 112.624L41.9572 111.49C41.8527 111.424 41.7365 111.39 41.6185 111.39C41.5005 111.39 41.3843 111.424 41.2798 111.49L39.4707 112.624C39.3503 112.7 39.2147 112.734 39.079 112.722C38.9434 112.711 38.8131 112.654 38.703 112.559C38.593 112.463 38.5075 112.333 38.4562 112.183C38.405 112.033 38.3901 111.869 38.4131 111.709L38.7598 109.307C38.7796 109.168 38.7708 109.026 38.7343 108.892C38.6977 108.758 38.6345 108.637 38.55 108.539L37.0861 106.837C36.9891 106.724 36.9206 106.581 36.8882 106.423C36.8559 106.266 36.8609 106.102 36.9029 105.948C36.9448 105.794 37.022 105.657 37.1256 105.553C37.2293 105.448 37.3553 105.381 37.4896 105.357L39.5129 105.01C39.6297 104.989 39.7406 104.935 39.836 104.852C39.9314 104.769 40.0085 104.66 40.0606 104.534L40.971 102.344C41.0311 102.198 41.1242 102.076 41.2397 101.99C41.3551 101.905 41.4884 101.859 41.6244 101.859C41.7603 101.859 41.8936 101.905 42.0091 101.99C42.1245 102.076 42.2176 102.198 42.2777 102.344Z" fill="#50CD89"/>
<path d="M196.892 27.8298L198.443 30.8341C198.532 31.0078 198.665 31.1581 198.828 31.2721C198.992 31.3861 199.182 31.4604 199.382 31.4885L202.848 31.9661C203.078 31.9985 203.294 32.0917 203.472 32.2352C203.65 32.3787 203.782 32.5668 203.854 32.7783C203.926 32.9898 203.934 33.2164 203.879 33.4324C203.823 33.6484 203.706 33.8453 203.54 34.0008L201.043 36.3412C200.898 36.4762 200.789 36.6428 200.727 36.8266C200.664 37.0105 200.649 37.2062 200.683 37.3968L201.255 40.7068C201.294 40.9262 201.268 41.1518 201.181 41.358C201.093 41.5641 200.947 41.7427 200.758 41.8736C200.57 42.0045 200.347 42.0825 200.115 42.0987C199.883 42.1149 199.651 42.0687 199.444 41.9654L196.343 40.4059C196.164 40.3159 195.965 40.2689 195.762 40.2689C195.56 40.2689 195.361 40.3159 195.182 40.4059L192.08 41.9654C191.874 42.0694 191.641 42.1161 191.409 42.1002C191.176 42.0843 190.953 42.0065 190.764 41.8755C190.576 41.7445 190.429 41.5656 190.341 41.359C190.253 41.1525 190.228 40.9266 190.267 40.7068L190.862 37.404C190.896 37.2133 190.881 37.0177 190.818 36.8338C190.755 36.6499 190.647 36.4834 190.502 36.3484L187.992 34.008C187.826 33.8524 187.709 33.6555 187.653 33.4395C187.598 33.2235 187.606 32.997 187.678 32.7855C187.75 32.5739 187.883 32.3858 188.06 32.2423C188.238 32.0988 188.454 32.0057 188.684 31.9733L192.153 31.4957C192.353 31.4675 192.543 31.3933 192.707 31.2793C192.87 31.1653 193.002 31.015 193.092 30.8413L194.652 27.8298C194.755 27.6299 194.915 27.4615 195.113 27.3437C195.311 27.226 195.539 27.1636 195.772 27.1636C196.005 27.1636 196.234 27.226 196.432 27.3437C196.63 27.4615 196.789 27.6299 196.892 27.8298Z" fill="#50CD89"/>
<path d="M278.966 87.585L280.387 90.5915C280.47 90.7648 280.591 90.9147 280.741 91.0284C280.891 91.142 281.065 91.216 281.248 91.2439L284.426 91.7219C284.638 91.7535 284.837 91.8465 285 91.9901C285.164 92.1337 285.286 92.3223 285.352 92.5344C285.418 92.7466 285.426 92.9739 285.375 93.1906C285.324 93.4073 285.216 93.6047 285.063 93.7604L282.762 96.1001C282.629 96.2354 282.529 96.4025 282.471 96.587C282.414 96.7714 282.4 96.9677 282.432 97.1588L282.975 100.462C283.011 100.681 282.987 100.907 282.906 101.113C282.826 101.32 282.692 101.498 282.519 101.629C282.347 101.76 282.142 101.838 281.929 101.855C281.717 101.871 281.504 101.825 281.315 101.721L278.471 100.163C278.307 100.073 278.124 100.026 277.939 100.026C277.753 100.026 277.571 100.073 277.406 100.163L274.563 101.721C274.374 101.825 274.16 101.872 273.947 101.856C273.734 101.84 273.529 101.762 273.356 101.631C273.183 101.5 273.049 101.321 272.968 101.114C272.888 100.908 272.864 100.682 272.901 100.462L273.445 97.1588C273.477 96.9677 273.463 96.7714 273.406 96.587C273.349 96.4025 273.249 96.2354 273.116 96.1001L270.815 93.7628C270.662 93.6072 270.553 93.41 270.502 93.1935C270.451 92.977 270.459 92.7498 270.525 92.5377C270.591 92.3256 270.712 92.137 270.876 91.9932C271.039 91.8495 271.238 91.7563 271.449 91.7243L274.629 91.2463C274.813 91.2184 274.987 91.1444 275.137 91.0308C275.287 90.9171 275.408 90.7672 275.49 90.5938L276.912 87.5874C277.006 87.3872 277.152 87.2185 277.334 87.1004C277.515 86.9824 277.724 86.9197 277.938 86.9194C278.152 86.9192 278.361 86.9814 278.543 87.099C278.724 87.2166 278.871 87.385 278.966 87.585Z" fill="#F1416C"/>
<path d="M45.8847 182.943L44.5923 179.938C44.5062 179.738 44.3733 179.57 44.2086 179.453C44.0439 179.336 43.8539 179.273 43.66 179.273C43.4662 179.273 43.2762 179.336 43.1114 179.453C42.9467 179.57 42.8138 179.738 42.7277 179.938L41.4354 182.943C41.3608 183.118 41.2502 183.269 41.1131 183.384C40.976 183.498 40.8166 183.572 40.6487 183.6L37.7582 184.078C37.566 184.11 37.3855 184.203 37.237 184.347C37.0885 184.49 36.978 184.679 36.9181 184.891C36.8581 185.103 36.851 185.33 36.8976 185.547C36.9442 185.763 37.0426 185.96 37.1817 186.116L39.2732 188.455C39.3942 188.59 39.4847 188.757 39.5369 188.941C39.5891 189.126 39.6015 189.322 39.5728 189.513L39.0796 192.815C39.0465 193.035 39.0676 193.261 39.1406 193.467C39.2135 193.674 39.3354 193.853 39.4924 193.984C39.6494 194.115 39.8352 194.194 40.0289 194.21C40.2226 194.226 40.4164 194.18 40.5884 194.076L43.1731 192.516C43.3223 192.426 43.4883 192.379 43.6569 192.379C43.8255 192.379 43.9915 192.426 44.1407 192.516L46.7275 194.072C46.8995 194.175 47.0933 194.221 47.287 194.205C47.4807 194.189 47.6665 194.111 47.8235 193.979C47.9805 193.848 48.1024 193.669 48.1753 193.462C48.2482 193.256 48.2694 193.03 48.2362 192.81L47.743 189.508C47.7144 189.317 47.7267 189.121 47.779 188.937C47.8312 188.752 47.9217 188.585 48.0427 188.45L50.1342 186.111C50.2733 185.955 50.3717 185.758 50.4183 185.542C50.4649 185.325 50.4578 185.098 50.3978 184.886C50.3378 184.674 50.2274 184.486 50.0789 184.342C49.9304 184.198 49.7499 184.105 49.5577 184.073L46.6671 183.595C46.5005 183.567 46.3422 183.493 46.2059 183.38C46.0696 183.266 45.9594 183.116 45.8847 182.943Z" fill="#50CD89"/>
</svg>
